<?xml version="1.0" encoding="utf-8"?>
<!-- Generator: Adobe Illustrator 16.0.3, SVG Export Plug-In . SVG Version: 6.00 Build 0)  -->
<!DOCTYPE svg PUBLIC "-//W3C//DTD SVG 1.1//EN" "http://www.w3.org/Graphics/SVG/1.1/DTD/svg11.dtd">
<svg version="1.1" id="Layer_1" xmlns="http://www.w3.org/2000/svg" xmlns:xlink="http://www.w3.org/1999/xlink" x="0px" y="0px"
	 width="566.929px" height="566.93px" viewBox="0 0 566.929 566.93" enable-background="new 0 0 566.929 566.93"
	 xml:space="preserve">
<polygon fill="#00843D" points="368.5,136.953 283.467,87.859 198.432,136.953 283.467,186.047 283.467,344.928 368.5,295.822 "/>
<polygon fill="#00843D" points="506.096,314.58 283.465,443.121 60.834,314.584 283.471,186.047 "/>
<polygon fill="#FFCD00" points="283.465,344.928 198.428,295.822 198.428,136.947 283.465,186.053 "/>
<polygon fill="#FFCD00" points="292.904,180.596 207.873,131.494 217.316,126.041 302.359,175.141 302.359,334.018 387.406,383.119 
	377.949,388.576 292.91,339.471 "/>
<polygon fill="#FFCD00" points="311.816,169.684 226.771,120.588 236.225,115.133 321.258,164.229 321.262,323.104 406.297,372.207 
	396.854,377.662 311.816,328.561 "/>
<polygon fill="#FFCD00" points="330.701,158.773 245.666,109.676 255.111,104.221 340.15,153.316 340.152,312.191 425.201,361.295 
	415.744,366.752 330.705,317.648 "/>
<polygon fill="#FFCD00" points="349.609,147.861 264.566,98.766 274.02,93.311 359.055,142.404 359.057,301.279 444.092,350.385 
	434.646,355.84 349.613,306.736 "/>
<polygon fill="#FFCD00" points="264.566,432.213 274.023,437.67 359.057,388.574 349.613,383.119 "/>
<polygon fill="#FFCD00" points="245.67,421.303 255.113,426.758 340.154,377.662 330.705,372.207 "/>
<polygon fill="#FFCD00" points="226.773,410.395 236.227,415.848 321.262,366.752 311.818,361.295 "/>
<polygon fill="#FFCD00" points="207.875,399.486 217.318,404.939 302.359,355.84 292.91,350.383 "/>
</svg>
