<?xml version="1.0" encoding="utf-8"?>
<!-- Generator: Adobe Illustrator 16.0.3, SVG Export Plug-In . SVG Version: 6.00 Build 0)  -->
<!DOCTYPE svg PUBLIC "-//W3C//DTD SVG 1.1//EN" "http://www.w3.org/Graphics/SVG/1.1/DTD/svg11.dtd">
<svg version="1.1" id="Layer_1" xmlns="http://www.w3.org/2000/svg" xmlns:xlink="http://www.w3.org/1999/xlink" x="0px" y="0px"
	 width="1105.512px" height="456.885px" viewBox="0 0 1105.512 456.885" enable-background="new 0 0 1105.512 456.885"
	 xml:space="preserve">
<polygon fill="#00843D" points="368.499,99.906 283.466,50.813 198.431,99.906 283.466,149 283.466,307.881 368.499,258.775 "/>
<g>
	<g>
		<path fill="#111D35" d="M551.363,283.465V215.51h23.755c7.269,0,13.582,1.396,18.937,4.186c5.354,2.791,9.524,6.752,12.511,11.879
			c2.984,5.127,4.479,11.131,4.479,18.01c0,6.881-1.494,12.852-4.479,17.914c-2.986,5.063-7.156,8.99-12.511,11.781
			s-11.668,4.186-18.937,4.186H551.363z M565.091,271.783h9.541c7.139,0,12.64-1.947,16.502-5.842
			c3.861-3.895,5.793-9.348,5.793-16.357s-1.932-12.525-5.793-16.551c-3.862-4.023-9.363-6.035-16.502-6.035h-9.541V271.783z"/>
		<path fill="#111D35" d="M642.002,284.146c-4.738,0-8.925-1.184-12.56-3.553c-3.636-2.369-6.491-5.646-8.567-9.834
			c-2.078-4.186-3.115-8.939-3.115-14.262c0-5.387,1.037-10.158,3.115-14.313c2.076-4.152,4.932-7.414,8.567-9.785
			c3.635-2.367,7.821-3.553,12.56-3.553c4.283,0,8.016,1.104,11.196,3.311c3.179,2.207,5.483,5.256,6.912,9.15v-11.779h13.825
			v53.936h-6.621c-2.207,0-3.959-0.664-5.257-1.996c-1.299-1.328-1.947-3.098-1.947-5.305v-4.576
			c-1.429,3.959-3.733,7.043-6.912,9.248C650.018,283.045,646.285,284.146,642.002,284.146z M645.896,272.172
			c2.531,0,4.867-0.615,7.01-1.85c2.142-1.232,3.877-3.018,5.208-5.355c1.33-2.336,1.996-5.16,1.996-8.469
			c0-3.375-0.666-6.232-1.996-8.568c-1.331-2.336-3.066-4.104-5.208-5.307c-2.143-1.199-4.479-1.801-7.01-1.801
			c-2.402,0-4.69,0.602-6.864,1.801c-2.175,1.203-3.928,2.971-5.257,5.307c-1.331,2.336-1.996,5.193-1.996,8.568
			c0,3.309,0.665,6.133,1.996,8.469c1.329,2.338,3.082,4.123,5.257,5.355C641.206,271.557,643.494,272.172,645.896,272.172z"/>
		<path fill="#111D35" d="M707.815,284.146c-5.063,0-9.07-1.508-12.023-4.527c-2.954-3.018-4.43-7.316-4.43-12.898v-25.996h-8.373
			v-11.195h34.173v11.195h-11.878v26.482c0,1.688,0.487,2.953,1.461,3.797s2.076,1.266,3.31,1.266c0.779,0,1.51-0.129,2.191-0.391
			c0.681-0.258,1.346-0.646,1.995-1.168l4.868,9.443c-1.688,1.363-3.441,2.371-5.257,3.02
			C712.034,283.822,710.021,284.146,707.815,284.146z M687.079,233.813v-4.283c1.427,0,2.546-0.422,3.358-1.266
			c0.811-0.844,1.217-1.979,1.217-3.408v-8.664h13.63v6.426c0,0.973-0.243,1.947-0.729,2.92c-0.487,0.975-1.153,1.818-1.996,2.531
			c-0.845,0.715-1.85,1.201-3.019,1.461L687.079,233.813z"/>
		<path fill="#111D35" d="M749.581,284.146c-4.738,0-8.925-1.184-12.56-3.553c-3.636-2.369-6.491-5.646-8.567-9.834
			c-2.078-4.186-3.115-8.939-3.115-14.262c0-5.387,1.037-10.158,3.115-14.313c2.076-4.152,4.932-7.414,8.567-9.785
			c3.635-2.367,7.821-3.553,12.56-3.553c4.283,0,8.016,1.104,11.196,3.311c3.179,2.207,5.483,5.256,6.912,9.15v-11.779h13.825
			v53.936h-6.621c-2.207,0-3.959-0.664-5.257-1.996c-1.299-1.328-1.947-3.098-1.947-5.305v-4.576
			c-1.429,3.959-3.733,7.043-6.912,9.248C757.597,283.045,753.864,284.146,749.581,284.146z M753.476,272.172
			c2.531,0,4.867-0.615,7.01-1.85c2.142-1.232,3.877-3.018,5.208-5.355c1.33-2.336,1.996-5.16,1.996-8.469
			c0-3.375-0.666-6.232-1.996-8.568c-1.331-2.336-3.066-4.104-5.208-5.307c-2.143-1.199-4.479-1.801-7.01-1.801
			c-2.402,0-4.69,0.602-6.864,1.801c-2.175,1.203-3.928,2.971-5.257,5.307c-1.331,2.336-1.996,5.193-1.996,8.568
			c0,3.309,0.665,6.133,1.996,8.469c1.329,2.338,3.082,4.123,5.257,5.355C748.785,271.557,751.073,272.172,753.476,272.172z"/>
		<path fill="#111D35" d="M798.454,283.465v-42.643h-6.134v-11.293h6.134v-2.727c0-3.635,0.551-6.668,1.654-9.104
			c1.104-2.434,2.661-4.396,4.674-5.889c2.011-1.492,4.413-2.564,7.204-3.213c2.79-0.648,5.874-0.908,9.249-0.779v11.488
			c-1.688,0-3.213,0.195-4.575,0.584c-1.363,0.389-2.419,1.119-3.165,2.191c-0.746,1.07-1.119,2.613-1.119,4.623v2.824h25.897
			v11.293h-25.897v42.643H798.454z M837.008,223.006c-2.727,0-4.999-0.828-6.815-2.482c-1.817-1.654-2.726-3.715-2.726-6.182
			s0.908-4.543,2.726-6.232c1.816-1.686,4.089-2.531,6.815-2.531c2.726,0,4.997,0.846,6.814,2.531
			c1.816,1.689,2.727,3.766,2.727,6.232s-0.91,4.527-2.727,6.182C842.005,222.178,839.733,223.006,837.008,223.006z
			 M829.998,283.465v-53.936h13.824v53.936H829.998z"/>
		<path fill="#111D35" d="M880.43,284.146c-4.155,0-8-0.648-11.537-1.947c-3.538-1.297-6.62-3.146-9.249-5.549
			c-2.629-2.4-4.674-5.273-6.134-8.617c-1.46-3.342-2.19-7.057-2.19-11.146c0-4.219,0.745-8.047,2.239-11.488
			c1.492-3.439,3.568-6.393,6.23-8.859c2.661-2.467,5.711-4.365,9.152-5.695c3.439-1.33,7.073-1.996,10.903-1.996
			c3.245,0,6.295,0.438,9.152,1.314c2.855,0.875,5.37,2.109,7.545,3.699c2.174,1.592,3.861,3.49,5.063,5.695
			c1.2,2.207,1.802,4.609,1.802,7.205c0,3.375-0.974,6.199-2.921,8.471s-4.527,4.072-7.74,5.402
			c-3.213,1.332-6.734,2.24-10.563,2.727c-3.83,0.486-7.594,0.666-11.293,0.535c-0.585-0.064-1.266-0.098-2.045-0.098
			s-1.478-0.016-2.093-0.049c-0.618-0.031-1.022-0.049-1.218-0.049c0.39,1.752,1.314,3.377,2.775,4.869
			c1.46,1.492,3.261,2.645,5.403,3.455c2.142,0.813,4.444,1.217,6.912,1.217c2.142,0,4.219-0.355,6.23-1.07
			c2.012-0.713,3.878-1.703,5.599-2.969c1.719-1.266,3.131-2.645,4.235-4.139l9.443,7.107c-2.078,2.727-4.479,4.982-7.204,6.766
			c-2.727,1.787-5.647,3.102-8.763,3.943C887.05,283.725,883.804,284.146,880.43,284.146z M871.375,254.063
			c2.142,0,4.299-0.096,6.475-0.291c2.174-0.195,4.187-0.568,6.036-1.119s3.342-1.33,4.479-2.338
			c1.135-1.006,1.703-2.287,1.703-3.846c0-1.297-0.438-2.449-1.313-3.455c-0.877-1.006-2.045-1.816-3.506-2.434
			c-1.46-0.617-3.132-0.926-5.014-0.926c-2.986,0-5.631,0.682-7.935,2.045c-2.305,1.363-4.105,3.131-5.403,5.305
			c-1.299,2.176-2.013,4.43-2.142,6.768c0.778,0.064,1.752,0.131,2.921,0.195C868.844,254.031,870.076,254.063,871.375,254.063z"/>
		<path fill="#111D35" d="M915.088,268.959V211.42h13.728v56.662c0,1.43,0.421,2.5,1.266,3.213c0.843,0.715,1.85,1.072,3.018,1.072
			c0.843,0,1.559-0.131,2.143-0.391l2.531,10.418c-2.272,1.168-4.868,1.752-7.789,1.752c-2.401,0-4.755-0.504-7.059-1.508
			c-2.305-1.006-4.187-2.629-5.646-4.869C915.818,275.531,915.088,272.594,915.088,268.959z"/>
		<path fill="#111D35" d="M966.881,284.146c-4.738,0-8.925-1.184-12.56-3.553c-3.636-2.369-6.491-5.646-8.567-9.834
			c-2.078-4.186-3.115-8.939-3.115-14.262c0-5.387,1.037-10.158,3.115-14.313c2.076-4.152,4.932-7.414,8.567-9.785
			c3.635-2.367,7.821-3.553,12.56-3.553c4.283,0,8.016,1.104,11.196,3.311c3.179,2.207,5.483,5.256,6.912,9.15V211.42h13.825v72.045
			h-6.621c-2.207,0-3.959-0.664-5.257-1.996c-1.299-1.328-1.947-3.098-1.947-5.305v-4.576c-1.429,3.959-3.733,7.043-6.912,9.248
			C974.896,283.045,971.164,284.146,966.881,284.146z M970.775,272.172c2.531,0,4.867-0.615,7.01-1.85
			c2.142-1.232,3.877-3.018,5.208-5.355c1.33-2.336,1.996-5.16,1.996-8.469c0-3.375-0.666-6.232-1.996-8.568
			c-1.331-2.336-3.066-4.104-5.208-5.307c-2.143-1.199-4.479-1.801-7.01-1.801c-2.402,0-4.69,0.602-6.864,1.801
			c-2.175,1.203-3.928,2.971-5.257,5.307c-1.331,2.336-1.996,5.193-1.996,8.568c0,3.309,0.665,6.133,1.996,8.469
			c1.329,2.338,3.082,4.123,5.257,5.355C966.085,271.557,968.373,272.172,970.775,272.172z"/>
		<path fill="#111D35" d="M1031.915,284.146c-3.895,0-7.399-0.633-10.515-1.898s-5.712-3.033-7.789-5.307
			c-2.078-2.27-3.538-4.801-4.381-7.594l12.852-2.92c0.584,2.143,1.752,3.846,3.505,5.111c1.752,1.266,3.797,1.898,6.134,1.898
			c2.726,0,4.785-0.52,6.182-1.559c1.396-1.037,2.094-2.336,2.094-3.893c0-1.623-0.73-2.873-2.191-3.75
			c-1.46-0.875-3.343-1.59-5.646-2.141c-2.305-0.551-4.755-1.168-7.351-1.85c-2.597-0.682-5.063-1.59-7.399-2.727
			c-2.336-1.135-4.234-2.693-5.695-4.674c-1.46-1.979-2.19-4.623-2.19-7.934c0-2.922,0.859-5.613,2.58-8.082
			c1.719-2.465,4.17-4.412,7.351-5.84c3.18-1.428,6.977-2.143,11.391-2.143c3.829,0,7.205,0.584,10.126,1.752
			c2.92,1.168,5.32,2.84,7.204,5.014c1.882,2.176,3.18,4.723,3.895,7.643l-12.462,3.311c-0.584-2.271-1.606-4.006-3.067-5.209
			c-1.46-1.199-3.489-1.801-6.084-1.801c-2.468,0-4.35,0.473-5.647,1.412c-1.299,0.941-1.947,2.189-1.947,3.748
			c0,1.623,0.73,2.873,2.19,3.748c1.461,0.877,3.343,1.623,5.647,2.24c2.303,0.617,4.754,1.266,7.351,1.947
			c2.595,0.682,5.046,1.605,7.351,2.773c2.303,1.168,4.187,2.76,5.646,4.771s2.19,4.672,2.19,7.982c0,2.922-0.876,5.598-2.629,8.033
			c-1.752,2.434-4.22,4.365-7.398,5.793C1040.027,283.434,1036.263,284.146,1031.915,284.146z"/>
	</g>
</g>
<polygon fill="#00843D" points="506.095,277.533 283.464,406.074 60.833,277.537 283.47,149 "/>
<polygon fill="#FFCD00" points="283.464,307.881 198.427,258.775 198.427,99.9 283.464,149.006 "/>
<polygon fill="#FFCD00" points="292.903,143.549 207.872,94.447 217.315,88.994 302.358,138.094 302.358,296.971 387.405,346.072 
	377.948,351.529 292.909,302.424 "/>
<polygon fill="#FFCD00" points="311.815,132.637 226.771,83.541 236.224,78.086 321.257,127.182 321.261,286.057 406.296,335.16 
	396.853,340.615 311.815,291.514 "/>
<polygon fill="#FFCD00" points="330.7,121.727 245.665,72.629 255.11,67.174 340.149,116.27 340.151,275.145 425.2,324.248 
	415.743,329.705 330.704,280.602 "/>
<polygon fill="#FFCD00" points="349.608,110.814 264.565,61.719 274.019,56.264 359.054,105.357 359.056,264.232 444.091,313.338 
	434.646,318.793 349.612,269.689 "/>
<polygon fill="#FFCD00" points="264.565,395.166 274.022,400.623 359.056,351.527 349.612,346.072 "/>
<polygon fill="#FFCD00" points="245.669,384.256 255.112,389.711 340.153,340.615 330.704,335.16 "/>
<polygon fill="#FFCD00" points="226.772,373.348 236.226,378.801 321.261,329.705 311.817,324.248 "/>
<polygon fill="#FFCD00" points="207.874,362.439 217.317,367.893 302.358,318.793 292.909,313.336 "/>
</svg>
