<svg width="200" height="50" viewBox="0 0 200 50" fill="none" xmlns="http://www.w3.org/2000/svg">
   <CHANGE> Removed the small "Datafields" text element from top left 
   Main logo geometric elements 
  <g transform="translate(0, 5)">
     Green base diamond 
    <path d="M20 20 L30 15 L40 20 L30 25 Z" fill="#00843D"/>
    
     Yellow 3D cube structure 
    <path d="M25 12 L35 7 L35 17 L25 22 Z" fill="#FFCD00"/>
    <path d="M35 7 L45 12 L45 22 L35 17 Z" fill="#E6B800"/>
    <path d="M25 22 L35 17 L45 22 L35 27 Z" fill="#FFCD00"/>
    
     Green layered elements 
    <path d="M20 20 L30 15 L30 25 L20 30 Z" fill="#00843D"/>
    <path d="M22 18 L32 13 L32 23 L22 28 Z" fill="#009B47"/>
    <path d="M24 16 L34 11 L34 21 L24 26 Z" fill="#00B852"/>
  </g>
  
   Main "Datafields" text 
  <text x="55" y="32" font-family="Arial, sans-serif" font-size="18" font-weight="600" fill="#FFCD00">Datafields</text>
</svg>
